<svg xmlns="http://www.w3.org/2000/svg" xmlns:xlink="http://www.w3.org/1999/xlink" xmlns:sketch="http://www.bohemiancoding.com/sketch/ns" viewBox="0 0 100 100" version="1.1" x="0px" y="0px"><title>home</title><desc>Created with Sketch.</desc><g stroke="none" stroke-width="1" fill="none" fill-rule="evenodd" sketch:type="MSPage"><g sketch:type="MSArtboardGroup" fill="#000000"><path d="M45.5211765,62.4186765 C41.9917647,62.4186765 38.9864706,65.2951471 38.9864706,68.6939706 L38.9864706,86.4716176 C38.9864706,90.0010294 36.11,92.7451471 32.45,92.7451471 L15.0641176,92.7451471 C11.5347059,92.7451471 8.52941176,89.8704412 8.52941176,86.3410294 L8.52941176,48.3010294 C8.52941176,44.7716176 10.6205882,39.9345588 13.1035294,37.3210294 L44.0847059,6.86220588 C46.5676471,4.37926471 50.75,4.37926471 53.2347059,6.86220588 L84.2141176,37.3210294 C86.6988235,39.8039706 88.79,44.7716176 88.79,48.3010294 L88.79,86.3410294 C88.79,89.8704412 85.9135294,92.7451471 82.2535294,92.7451471 L66.4364706,92.7451471 C62.9070588,92.7451471 60.0323529,89.8704412 60.0323529,86.4716176 L60.0323529,68.6939706 C60.0323529,65.1645588 57.1558824,62.4186765 53.6264706,62.4186765 L45.5211765,62.4186765" sketch:type="MSShapeGroup"/></g></g></svg>