<svg xmlns="http://www.w3.org/2000/svg" xmlns:xlink="http://www.w3.org/1999/xlink" version="1.1" x="0px" y="0px" viewBox="0 0 90 90" enable-background="new 0 0 90 90" xml:space="preserve"><g><path d="M83.7,43c0-0.3-0.1-0.6-0.2-0.9c-0.1-0.1-0.2-0.3-0.3-0.4c-0.1-0.1-0.1-0.2-0.2-0.3c0,0,0,0,0,0L70.3,28.6   c-0.9-0.9-2.3-0.9-3.2,0c-0.9,0.9-0.9,2.6,0,3.5l8.9,9.2H31.7c-1.2,0-2.3,1-2.3,2.3c0,1.2,1,2.3,2.3,2.3H76l-8.9,8.7   c-0.9,0.9-0.9,2.2,0,3.1c0.9,0.9,2.3,0.8,3.2-0.1l12.8-12.8c0,0,0,0,0,0c0.1-0.1,0.2-0.2,0.2-0.4c0.1-0.1,0.2-0.2,0.2-0.4   C83.7,43.6,83.7,43.3,83.7,43L83.7,43L83.7,43z"/><path d="M53.9,58.8v17.6H13.2V13.1h40.7v16.5h4.5V13.1c0-2.5-1.9-4.5-4.2-4.5H12.9c-2.3,0-4.2,2-4.2,4.5v63.3   c0,2.5,1.9,4.5,4.2,4.5h41.3c2.3,0,4.2-2,4.2-4.5V58.8H53.9z"/></g></svg>